<mxfile host="65bd71144e">
    <diagram id="HAn6Z7DMyqH6SsOed5RK" name="Page-1">
        <mxGraphModel dx="1002" dy="573" grid="1" gridSize="10" guides="1" tooltips="1" connect="1" arrows="1" fold="1" page="1" pageScale="1" pageWidth="850" pageHeight="1100" math="0" shadow="0">
            <root>
                <mxCell id="0"/>
                <mxCell id="1" parent="0"/>
                <mxCell id="3" value="&lt;b&gt;Email Delivery&lt;/b&gt;&lt;br&gt;1. Account Creation&lt;br&gt;2. Product Purchase&lt;br&gt;3. Receipt Delivery" style="rounded=0;whiteSpace=wrap;html=1;" vertex="1" parent="1">
                    <mxGeometry x="210" y="120" width="330" height="150" as="geometry"/>
                </mxCell>
            </root>
        </mxGraphModel>
    </diagram>
</mxfile>